<svg width="32" height="32" viewBox="0 0 32 32" fill="none" xmlns="http://www.w3.org/2000/svg">
<path fill-rule="evenodd" clip-rule="evenodd" d="M32 32H23.8736C23.8736 28.865 23.2561 25.7606 22.0563 22.8642C20.8565 19.9678 19.098 17.3361 16.8811 15.1194C14.6642 12.9026 12.0324 11.1442 9.13591 9.94463C6.23944 8.74503 3.13505 8.12771 0 8.1279V0C17.6729 0 32 14.3271 32 32Z" fill="#3E0563"/>
<path fill-rule="evenodd" clip-rule="evenodd" d="M17.7778 31.9999H11.3272C11.3272 28.9978 10.1346 26.1187 8.01182 23.9959C5.88902 21.8731 3.00989 20.6805 0.0078125 20.6805V14.23C4.72009 14.2319 9.23881 16.1047 12.5709 19.4368C15.903 22.7689 17.7758 27.2876 17.7778 31.9999Z" fill="#FA9706"/>
</svg>
